<?xml version="1.0" encoding="UTF-8" standalone="no"?><!DOCTYPE svg PUBLIC "-//W3C//DTD SVG 1.1//EN" "http://www.w3.org/Graphics/SVG/1.1/DTD/svg11.dtd"><svg width="100%" height="100%" viewBox="0 0 720 250" version="1.1" xmlns="http://www.w3.org/2000/svg" xmlns:xlink="http://www.w3.org/1999/xlink" xml:space="preserve" xmlns:serif="http://www.serif.com/" style="fill-rule:evenodd;clip-rule:evenodd;stroke-linejoin:round;stroke-miterlimit:1.41421;"><rect x="0" y="0" width="720" height="250" style="fill:#ffe064;"/><path d="M53.982,203.742c-1.189,-2.285 -5.717,-2.287 -10.106,-0.004c-4.388,2.283 -6.986,5.992 -5.797,8.277c1.498,-1.65 4.133,-3.728 7.305,-5.378c3.172,-1.651 6.386,-2.615 8.598,-2.895Z" style="fill:#fff;"/><path d="M54.817,203.665c0.466,-3.139 -4.959,-6.549 -12.105,-7.608c-7.147,-1.06 -13.327,0.628 -13.793,3.767c3.161,-0.494 8.037,-0.552 13.202,0.214c5.166,0.766 9.814,2.237 12.696,3.627Z" style="fill:#fff;"/><path d="M53.958,203.536c2.495,-1.961 0.896,-8.165 -3.569,-13.845c-4.466,-5.68 -10.116,-8.699 -12.611,-6.738c2.636,1.813 6.219,5.12 9.446,9.225c3.228,4.106 5.595,8.368 6.734,11.358Z" style="fill:#fff;"/><path d="M54.687,203.217c-0.721,-3.091 4.407,-6.932 11.443,-8.572c7.036,-1.641 13.334,-0.464 14.054,2.627c-3.19,-0.234 -8.054,0.107 -13.14,1.292c-5.086,1.186 -9.599,3.032 -12.357,4.653Z" style="fill:#fff;"/><ellipse cx="53" cy="281" rx="81" ry="37" style="fill:#fff;"/><path d="M54.938,202.572c-4.266,-0.316 -8.597,11.158 -9.667,25.606c-1.069,14.448 1.525,26.435 5.791,26.75c-0.827,-6.203 -1.154,-15.907 -0.381,-26.35c0.773,-10.442 2.525,-19.993 4.257,-26.006Z" style="fill:#fff;"/><path d="M52.938,203.823c1.896,-2.545 8.139,-1.106 13.933,3.21c5.794,4.317 8.958,9.887 7.062,12.432c-1.88,-2.588 -5.279,-6.084 -9.467,-9.204c-4.187,-3.12 -8.51,-5.376 -11.528,-6.438Z" style="fill:#fff;"/><path d="M631.518,186.742c1.189,-2.285 5.717,-2.287 10.106,-0.004c4.388,2.283 6.986,5.992 5.797,8.277c-1.498,-1.65 -4.133,-3.728 -7.305,-5.378c-3.172,-1.651 -6.386,-2.615 -8.598,-2.895Z" style="fill:#fff;"/><path d="M630.683,186.665c-0.466,-3.139 4.959,-6.549 12.105,-7.608c7.147,-1.06 13.327,0.628 13.793,3.767c-3.161,-0.494 -8.037,-0.552 -13.202,0.214c-5.166,0.766 -9.814,2.237 -12.696,3.627Z" style="fill:#fff;"/><path d="M631.542,186.536c-2.495,-1.961 -0.896,-8.165 3.569,-13.845c4.466,-5.68 10.116,-8.699 12.611,-6.738c-2.636,1.813 -6.219,5.12 -9.446,9.225c-3.228,4.106 -5.595,8.368 -6.734,11.358Z" style="fill:#fff;"/><path d="M630.813,186.217c0.721,-3.091 -4.407,-6.932 -11.443,-8.572c-7.036,-1.641 -13.334,-0.464 -14.054,2.627c3.19,-0.234 8.054,0.107 13.14,1.292c5.086,1.186 9.599,3.032 12.357,4.653Z" style="fill:#fff;"/><ellipse cx="632.5" cy="264" rx="81" ry="37" style="fill:#fff;"/><ellipse cx="663.25" cy="40.25" rx="23.75" ry="23.25" style="fill:#fff;"/><path d="M630.562,185.572c4.266,-0.316 8.597,11.158 9.667,25.606c1.069,14.448 -1.525,26.435 -5.791,26.75c0.827,-6.203 1.154,-15.907 0.381,-26.35c-0.773,-10.442 -2.525,-19.993 -4.257,-26.006Z" style="fill:#fff;"/><path d="M632.562,186.823c-1.896,-2.545 -8.139,-1.106 -13.933,3.21c-5.794,4.317 -8.958,9.887 -7.062,12.432c1.88,-2.588 5.279,-6.084 9.467,-9.204c4.187,-3.12 8.51,-5.376 11.528,-6.438Z" style="fill:#fff;"/></svg>