<?xml version="1.0" encoding="UTF-8" standalone="no"?><!DOCTYPE svg PUBLIC "-//W3C//DTD SVG 1.1//EN" "http://www.w3.org/Graphics/SVG/1.1/DTD/svg11.dtd"><svg width="100%" height="100%" viewBox="0 0 720 250" version="1.1" xmlns="http://www.w3.org/2000/svg" xmlns:xlink="http://www.w3.org/1999/xlink" xml:space="preserve" xmlns:serif="http://www.serif.com/" style="fill-rule:evenodd;clip-rule:evenodd;stroke-linejoin:round;stroke-miterlimit:1.41421;"><rect x="0" y="-9.75" width="720" height="269.5" style="fill:#ffe064;"/><rect x="0" y="-9.75" width="720" height="269.5" style="fill:#ffe064;"/><circle cx="15.215" cy="234.75" r="2.5" style="fill:#fff;"/><circle cx="59.75" cy="213.5" r="4.75" style="fill:#fff;"/><ellipse cx="30.5" cy="200.437" rx="6.5" ry="6.532" style="fill:#fff;"/><circle cx="684.25" cy="240.25" r="1.25" style="fill:#fff;"/><circle cx="640.25" cy="227.5" r="4.75" style="fill:#fff;"/><path d="M660.116,204.669c0.995,-0.326 2.285,0.881 2.878,2.693c0.592,1.812 0.265,3.548 -0.73,3.873c-0.996,0.326 -2.285,-0.881 -2.878,-2.693c-0.593,-1.812 -0.266,-3.547 0.73,-3.873Z" style="fill:#fff;"/><g><path d="M639.277,213.5c-3.767,-3.222 -3.962,-11.854 -0.436,-19.265c3.526,-7.411 9.447,-10.812 13.214,-7.59c-2.621,2.166 -5.888,6.32 -8.436,11.676c-2.549,5.357 -3.981,11.079 -4.342,15.179Z" style="fill:#fff;"/><path d="M675.747,207.996c3.767,-3.222 2.644,-10.726 -2.507,-16.748c-5.15,-6.022 -12.389,-8.296 -16.156,-5.074c3.307,1.579 7.656,4.807 11.379,9.16c3.722,4.352 6.237,9.149 7.284,12.662Z" style="fill:#fff;"/><path d="M665.63,155.524c4.025,1.554 4.976,8.817 2.122,16.209c-2.854,7.392 -8.439,12.132 -12.464,10.578c2.414,-2.659 5.296,-7.206 7.359,-12.549c2.062,-5.343 2.984,-10.647 2.983,-14.238Z" style="fill:#fff;"/><path d="M625.813,164.631c-2.55,3.561 0.61,10.198 7.053,14.811c6.442,4.613 13.744,5.466 16.294,1.905c-3.489,-0.882 -8.403,-3.088 -13.06,-6.422c-4.657,-3.334 -8.328,-7.276 -10.287,-10.294Z" style="fill:#fff;"/><path d="M643.018,161.209c10.908,-5.13 24.405,0.575 30.123,12.731c5.717,12.157 1.504,26.192 -9.404,31.322c-10.907,5.13 -24.405,-0.575 -30.122,-12.732c-5.718,-12.157 -1.504,-26.191 9.403,-31.321Z" style="fill:#fff;"/><path d="M641.334,152.514c4.148,-1.452 8.952,1.473 10.721,6.527c1.769,5.055 -0.163,10.337 -4.311,11.788c-4.148,1.452 -8.952,-1.473 -10.721,-6.527c-1.768,-5.054 0.163,-10.336 4.311,-11.788Z" style="fill:#fff;"/></g><ellipse cx="698.5" cy="206.968" rx="6.5" ry="6.532" style="fill:#fff;"/><circle cx="669.5" cy="227.5" r="2.5" style="fill:#fff;"/><circle cx="648.25" cy="240.25" r="1.25" style="fill:#fff;"/></svg>